<?xml version="1.0" standalone="no"?>
<!DOCTYPE svg PUBLIC "-//W3C//DTD SVG 20010904//EN"
 "http://www.w3.org/TR/2001/REC-SVG-20010904/DTD/svg10.dtd">
<svg version="1.0" xmlns="http://www.w3.org/2000/svg"
 width="1368.000000pt" height="1148.000000pt" viewBox="0 0 1368.000000 1148.000000"
 preserveAspectRatio="xMidYMid meet">

<g transform="translate(0.000000,1148.000000) scale(0.100000,-0.100000)"
fill="#000000" stroke="none">
<path d="M6292 11125 c-279 -32 -487 -78 -759 -170 -1071 -361 -1885 -1274
-2173 -2438 -217 -877 -64 -1856 417 -2675 l55 -93 61 58 c72 69 170 140 244
177 l52 26 -74 152 c-179 373 -284 779 -302 1173 -5 123 -7 133 -39 190 -45
82 -83 200 -95 295 -24 192 43 429 170 606 50 70 62 97 85 180 180 683 584
1290 1141 1715 288 220 670 407 1047 513 582 164 1197 153 1773 -31 533 -170
978 -446 1359 -844 139 -145 122 -117 -36 59 -361 402 -823 714 -1343 905
-245 90 -461 145 -740 187 -184 28 -654 37 -843 15z"/>
<path d="M9370 9826 c0 -2 8 -10 18 -17 15 -13 16 -12 3 4 -13 16 -21 21 -21
13z"/>
<path d="M5300 9801 c-6 -12 -10 -103 -10 -225 0 -193 1 -206 20 -216 10 -5
34 -9 52 -8 l33 3 3 -81 c3 -93 -10 -120 -81 -156 -113 -57 -217 -161 -269
-266 l-33 -66 -3 -223 c-2 -123 -6 -223 -9 -223 -2 0 -46 42 -96 93 -105 104
-184 155 -302 193 -328 105 -671 -48 -831 -371 -61 -124 -84 -221 -84 -359 0
-172 49 -315 151 -447 45 -58 505 -550 779 -834 85 -89 241 -252 345 -363 168
-179 196 -204 243 -222 29 -11 58 -20 64 -20 6 0 -40 53 -103 118 -64 64 -160
164 -214 222 -55 58 -148 155 -207 217 l-109 112 22 43 c102 200 427 559 673
745 103 78 223 143 262 143 16 0 63 -43 156 -142 73 -78 210 -223 303 -323
244 -259 276 -295 319 -359 45 -67 83 -157 102 -241 l14 -60 -5 71 c-13 165
62 350 200 489 95 96 172 150 275 189 41 15 81 31 88 35 11 5 13 107 13 546 0
297 0 557 -1 577 l0 37 -542 1 c-298 0 -559 3 -579 6 l-38 6 29 57 c27 55 28
64 28 182 -1 132 -13 179 -47 179 -10 0 -26 9 -36 20 -17 19 -18 26 -6 68 7
26 28 81 47 123 19 42 34 82 34 88 0 8 57 11 193 12 105 1 251 5 322 8 116 7
121 8 50 10 -44 1 -74 5 -67 8 19 7 14 34 -10 60 l-21 23 96 0 97 0 0 -55 0
-55 32 0 c17 0 41 -8 52 -19 12 -10 35 -26 51 -35 30 -17 30 -17 6 1 -68 50
-66 46 -70 137 l-3 86 -162 3 c-159 3 -159 3 46 5 172 2 209 5 222 18 14 13
16 47 16 215 0 119 -4 208 -10 220 -10 19 -29 19 -745 19 -716 0 -735 0 -745
-19z m318 -907 c97 -14 30 -24 -155 -24 -110 0 -215 -5 -236 -11 -45 -12 -52
-9 -34 15 8 11 35 21 67 26 55 9 277 5 358 -6z m-1144 -428 c105 -32 168 -102
146 -162 -6 -15 -18 -33 -28 -40 -28 -22 -106 -16 -177 12 -101 41 -147 110
-108 162 31 42 88 52 167 28z m2116 -356 l0 -150 140 0 140 0 0 -165 0 -165
-140 0 -140 0 0 -150 0 -151 -157 3 -158 3 -3 148 -3 147 -138 0 -138 0 -6 87
c-3 49 -3 120 0 159 6 70 6 72 36 78 16 3 78 6 138 6 l109 0 0 143 c0 79 3
146 6 149 3 4 75 6 160 7 l154 0 0 -149z"/>
<path d="M8070 9733 c-8 -3 -148 -54 -310 -114 -538 -197 -993 -368 -1001
-376 -20 -20 7 -54 79 -100 108 -67 191 -153 237 -247 l38 -76 1331 2 1331 3
3 164 c1 91 -1 168 -5 172 -5 5 -132 52 -283 105 -151 53 -349 122 -440 154
-91 31 -327 115 -525 185 -340 120 -419 143 -455 128z m130 -313 l0 -80 90 0
91 0 -3 -77 -3 -78 -87 -3 -87 -3 -3 -82 -3 -82 -77 -3 -78 -3 0 85 0 84 -90
7 -91 7 3 72 3 71 88 3 87 3 0 79 0 80 80 0 80 0 0 -80z"/>
<path d="M6860 9046 c0 -2 8 -10 18 -17 15 -13 16 -12 3 4 -13 16 -21 21 -21
13z"/>
<path d="M7140 8494 c0 -85 0 -86 23 -80 12 3 110 7 217 8 157 1 175 3 95 7
-72 4 -99 9 -97 19 1 6 -2 12 -8 12 -6 0 -10 7 -10 15 0 9 -9 25 -20 37 -11
12 -20 28 -20 35 0 7 -6 14 -12 14 -7 1 5 5 27 9 28 5 4 8 -77 9 l-118 1 0
-86z"/>
<path d="M7240 7950 l0 -182 163 4 162 3 3 173 2 172 -122 1 c-68 0 -142 2
-165 5 l-43 6 0 -182z"/>
<path d="M8188 7565 l3 -565 -150 0 c-83 0 -151 -2 -151 -4 0 -1 20 -33 44
-70 24 -37 58 -109 76 -164 31 -89 33 -107 33 -217 -1 -95 -5 -135 -23 -190
-83 -262 -296 -466 -559 -537 -110 -29 -278 -29 -388 0 -234 62 -417 206 -517
405 -42 85 -50 108 -55 180 l-7 82 -8 -80 c-18 -202 -76 -336 -195 -455 -79
-79 -172 -139 -247 -161 -24 -7 -44 -16 -44 -20 0 -3 19 -9 43 -12 335 -49
384 -62 466 -128 57 -44 94 -102 112 -171 6 -27 13 -48 16 -48 2 0 141 69 309
154 440 224 558 266 735 266 114 0 159 -11 228 -54 l41 -26 13 23 c217 353
406 555 717 765 145 97 266 164 617 341 299 150 422 222 538 316 72 57 155
136 155 147 0 4 -179 8 -397 8 -219 0 -455 3 -525 7 l-128 6 0 384 0 383 -377
0 -378 0 3 -565z m712 -465 c0 -82 -3 -100 -15 -100 -12 0 -15 13 -13 68 l1
67 7 -65 c6 -63 7 -62 8 33 1 53 4 97 7 97 3 0 5 -45 5 -100z"/>
<path d="M7652 7948 l3 -173 163 -1 162 -1 0 173 0 174 -165 0 -165 0 2 -172z
m307 115 c-1 -43 -2 -45 -8 -15 -3 18 -10 33 -16 33 -19 -1 -45 10 -45 20 0 5
16 9 35 9 l35 0 -1 -47z"/>
<path d="M9400 7930 l0 -180 270 0 270 0 -2 178 -3 177 -267 3 -268 2 0 -180z"/>
<path d="M10366 7803 c-4 -9 -2 -21 4 -27 7 -7 10 -2 10 17 0 31 -5 34 -14 10z"/>
<path d="M10382 7725 c0 -16 2 -22 5 -12 2 9 2 23 0 30 -3 6 -5 -1 -5 -18z"/>
<path d="M9127 7733 c-4 -3 -7 -87 -7 -185 l0 -178 245 0 245 0 1 23 c0 12 2
92 4 178 l4 156 -181 6 c-229 9 -303 9 -311 0z"/>
<path d="M9661 7732 c-7 -2 -11 -60 -11 -183 l0 -179 184 0 184 0 36 49 c61
86 108 189 114 253 l5 58 -29 2 c-59 3 -472 4 -483 0z"/>
<path d="M10336 7694 c-4 -14 -5 -28 -3 -31 3 -2 8 8 11 23 4 14 5 28 3 31 -3
2 -8 -8 -11 -23z"/>
<path d="M7237 7552 c-3 -78 -3 -159 0 -179 l5 -38 116 3 c65 1 137 3 162 5
l45 2 2 168 2 167 -43 0 c-23 0 -97 3 -163 6 l-120 7 -6 -141z m311 41 l-2
-78 -3 72 -4 72 -67 4 -67 3 73 2 72 2 -2 -77z m2 -218 c0 -8 -7 -15 -15 -15
-13 0 -14 3 -3 15 16 18 18 18 18 0z"/>
<path d="M7657 7680 c-1 -3 -2 -79 -2 -170 l0 -165 163 -3 162 -2 -2 170 -3
171 -158 2 c-88 1 -160 0 -160 -3z m301 -92 l-2 -83 -3 78 -4 77 -69 0 c-38 0
-72 -4 -75 -10 -3 -5 -21 -10 -40 -10 -19 0 -37 5 -40 10 -3 6 -15 10 -25 10
-17 0 -20 -9 -23 -67 l-3 -68 -2 73 -2 72 145 0 145 0 -2 -82z m-10 -225 c-10
-2 -28 -2 -40 0 -13 2 -5 4 17 4 22 1 32 -1 23 -4z"/>
<path d="M10391 7475 c-1 -115 -6 -255 -11 -310 -20 -219 -20 -226 -4 -135 14
85 32 595 21 635 -2 11 -5 -74 -6 -190z"/>
<path d="M10290 7564 c-28 -68 -116 -211 -173 -279 -23 -27 -33 -43 -23 -35
11 8 41 44 68 79 26 35 48 60 48 56 0 -5 9 1 20 13 12 13 17 28 13 38 -5 13
-3 15 7 9 8 -5 11 -4 6 3 -3 6 7 37 23 69 30 60 46 103 38 103 -3 0 -15 -25
-27 -56z"/>
<path d="M9990 7152 c-36 -31 -86 -74 -110 -96 l-45 -38 47 32 c45 31 188 159
178 159 -3 0 -34 -26 -70 -57z"/>
<path d="M9750 6971 c-88 -57 -264 -153 -440 -241 -351 -175 -582 -323 -762
-486 -94 -86 -212 -220 -204 -233 4 -5 1 -13 -5 -17 -8 -4 -9 -3 -5 4 4 7 5
12 3 12 -8 0 -79 -102 -74 -106 2 -3 16 14 31 36 14 22 29 40 32 40 7 0 -3
-16 -34 -57 -13 -18 -28 -31 -32 -28 -18 11 -156 -253 -215 -412 -72 -189
-266 -389 -548 -564 -174 -109 -479 -250 -677 -315 -47 -15 -88 -30 -93 -34
-4 -3 50 -1 120 6 838 82 1596 446 2286 1099 131 123 323 330 390 419 21 28
45 55 54 60 20 11 21 12 -94 -158 -52 -76 -91 -136 -86 -133 5 3 52 68 106
145 55 79 107 143 122 150 14 7 25 20 25 31 0 11 7 27 16 36 23 23 6 57 -44
89 -29 18 -41 33 -44 55 -3 19 0 31 7 31 6 0 12 12 13 28 1 15 7 29 12 30 6 2
10 14 10 27 0 30 31 48 90 51 25 1 57 5 73 7 25 5 27 3 28 -26 1 -18 1 -37 0
-44 -2 -16 38 -4 74 23 17 12 41 25 55 29 18 4 25 13 26 30 2 21 -3 25 -26 25
-16 0 -32 5 -36 12 -4 6 -3 8 4 5 7 -5 6 1 -1 17 -11 23 -32 27 -57 11 -6 -3
-10 1 -10 10 0 9 -4 13 -10 10 -5 -3 -10 0 -10 8 0 17 -47 40 -55 27 -7 -11
-42 -5 -61 11 -8 6 -14 8 -14 3 0 -4 -11 3 -24 15 -28 26 -42 24 -76 -10 -35
-37 -56 -45 -130 -54 -36 -4 -75 -9 -88 -10 -52 -7 -67 -28 -67 -93 0 -33 -2
-63 -5 -66 -3 -3 -30 -8 -60 -11 -30 -3 -82 -11 -115 -16 -61 -11 -196 -5
-223 10 -10 5 -27 1 -49 -11 -18 -11 -33 -18 -33 -15 0 5 160 109 230 149 25
14 144 76 265 138 121 62 255 132 297 157 124 70 237 145 216 143 -2 0 -37
-22 -78 -49z m-85 -421 c3 -5 1 -10 -4 -10 -6 0 -11 5 -11 10 0 6 2 10 4 10 3
0 8 -4 11 -10z m-870 -149 c-2 -10 -11 -33 -20 -50 -14 -28 -19 -31 -59 -29
-42 3 -43 4 -28 21 13 15 100 77 108 77 2 0 1 -9 -1 -19z m-155 -105 c0 -2
-12 -11 -27 -20 l-28 -17 24 20 c23 21 31 25 31 17z m454 -51 c3 -9 18 -15 36
-15 23 0 30 -4 30 -20 0 -11 -4 -20 -10 -20 -5 0 -10 -5 -10 -11 0 -5 4 -8 9
-5 5 3 14 -1 21 -9 7 -9 27 -22 45 -31 31 -14 50 -45 37 -58 -3 -3 -21 -6 -41
-7 -20 0 -30 -3 -23 -6 13 -5 7 -23 -9 -23 -6 0 -8 4 -5 9 3 5 -8 25 -24 46
-35 43 -46 75 -31 84 6 4 -1 16 -19 31 -17 14 -30 30 -30 37 0 18 17 16 24 -2z
m-237 -120 c29 -9 59 -54 41 -59 -57 -18 -71 -17 -99 10 -22 21 -26 30 -17 44
11 17 35 19 75 5z m373 -79 c0 -8 -4 -18 -10 -21 -5 -3 -10 3 -10 14 0 12 5
21 10 21 6 0 10 -6 10 -14z m160 -91 c-43 -44 -70 -63 -37 -27 13 15 14 21 4
32 -10 12 -9 12 4 2 21 -15 33 -3 16 16 -9 13 -9 14 0 8 7 -4 21 -2 30 3 31
18 28 12 -17 -34z m-225 -26 c4 -6 13 -8 20 -5 13 5 29 -27 26 -52 -1 -7 5
-15 14 -18 17 -7 21 -34 5 -34 -5 0 -10 -8 -10 -17 0 -13 7 -10 30 12 17 16
30 27 30 24 0 -2 -42 -45 -92 -94 -51 -50 -65 -60 -30 -24 58 61 62 67 46 80
-16 12 -17 12 -9 -1 6 -12 5 -13 -6 -2 -7 6 -25 12 -40 12 -30 0 -46 15 -49
45 -4 32 -1 40 20 63 23 24 35 27 45 11z"/>
<path d="M10337 6845 c-10 -54 -16 -100 -14 -102 6 -6 40 174 35 188 -2 6 -12
-32 -21 -86z"/>
<path d="M10311 6714 c0 -11 3 -14 6 -6 3 7 2 16 -1 19 -3 4 -6 -2 -5 -13z"/>
<path d="M10301 6674 c0 -11 3 -14 6 -6 3 7 2 16 -1 19 -3 4 -6 -2 -5 -13z"/>
<path d="M10282 6618 c-5 -18 -10 -26 -11 -16 -1 14 -5 15 -31 5 -16 -6 -30
-17 -30 -25 0 -7 -4 -11 -8 -8 -4 2 -14 0 -22 -5 -13 -8 -13 -10 0 -18 8 -5
18 -7 23 -4 4 3 19 2 33 -1 22 -6 25 -11 20 -39 -4 -21 0 -16 13 18 18 51 35
125 28 125 -2 0 -9 -15 -15 -32z"/>
<path d="M10150 6452 c0 -8 -7 -24 -17 -34 -14 -16 -14 -22 -3 -43 7 -13 17
-22 22 -19 13 8 9 -23 -5 -34 -7 -6 -26 -13 -42 -16 -75 -14 -115 -53 -115
-113 0 -47 -16 -60 -79 -67 -33 -4 -63 -11 -65 -15 -5 -7 3 -20 44 -68 5 -7
10 -19 10 -28 0 -22 28 -75 40 -75 6 0 10 7 10 16 0 8 5 12 10 9 6 -3 10 -1
10 4 0 6 6 11 14 11 13 0 27 21 31 45 0 6 6 23 13 38 7 16 12 44 12 62 0 44
34 101 71 117 17 8 29 21 30 33 1 11 5 3 10 -18 6 -25 5 -45 -2 -59 -6 -11 -9
-22 -6 -24 6 -6 31 55 73 180 35 103 44 144 19 91 -7 -16 -14 -24 -14 -17 -1
7 -5 11 -10 8 -5 -3 -11 0 -14 8 -8 20 -47 28 -47 8z"/>
<path d="M10061 6007 c-64 -132 -75 -149 -82 -129 -5 14 -5 31 1 41 8 16 6 18
-23 12 -20 -5 -31 -13 -30 -22 2 -8 -11 -30 -27 -49 -17 -19 -29 -44 -29 -55
2 -17 2 -17 6 3 2 12 8 20 13 17 5 -3 7 -12 3 -20 -3 -9 1 -25 9 -38 15 -22
15 -22 -30 -18 -43 3 -45 4 -27 19 17 12 17 14 3 9 -13 -5 -18 -1 -18 12 0 14
-10 21 -35 25 -19 4 -38 6 -42 6 -4 -1 -14 13 -22 32 -19 40 -51 47 -89 22
-19 -13 -42 -18 -79 -15 -40 2 -55 -1 -68 -16 -68 -76 -87 -93 -108 -93 -13 0
-29 6 -36 13 -11 10 -12 9 -6 -3 5 -8 5 -12 0 -8 -4 4 -15 2 -24 -5 -18 -14
-17 -12 39 63 53 71 9 25 -80 -85 -96 -118 -318 -346 -441 -452 -49 -42 -85
-81 -82 -86 3 -6 1 -7 -6 -3 -13 8 -104 -62 -96 -74 3 -4 -3 -14 -13 -21 -15
-13 -16 -12 -3 4 25 31 1 18 -102 -57 -435 -314 -957 -528 -1482 -607 -167
-25 -496 -35 -670 -20 -171 15 -375 43 -375 52 0 4 20 10 44 13 158 24 391
101 583 191 169 80 260 137 778 486 127 85 273 180 325 211 129 76 160 112
160 186 0 88 -99 162 -214 162 -149 -1 -266 -48 -816 -334 -345 -180 -445
-215 -677 -238 -203 -20 -466 18 -608 88 -47 23 -48 24 -15 19 205 -31 286
-37 480 -32 217 5 324 21 370 55 87 65 93 179 14 254 -44 41 -108 65 -224 83
-291 46 -443 89 -760 215 -191 76 -361 128 -489 150 -93 16 -311 14 -407 -5
-223 -42 -432 -152 -578 -303 -59 -61 -61 -53 46 -197 354 -475 774 -828 1295
-1091 275 -139 515 -226 833 -303 281 -68 600 -99 907 -87 263 9 448 36 698
101 622 161 1150 462 1606 915 172 170 390 432 328 394 -8 -5 -8 -1 0 14 6 12
17 24 24 28 8 5 7 2 -2 -9 -8 -10 -12 -20 -9 -23 6 -5 54 54 81 101 15 25 12
24 -19 -10 -20 -22 -32 -30 -26 -19 7 12 11 37 11 55 -2 45 3 62 20 75 17 13
43 -4 33 -21 -3 -5 2 -3 13 5 17 15 18 14 1 -20 l-17 -35 24 28 c23 28 79 117
143 229 41 71 177 358 172 363 -1 2 -36 -65 -77 -148z m-741 -368 c12 -22 0
-57 -28 -83 -18 -16 -28 -17 -76 -9 -49 9 -57 8 -78 -11 -23 -21 19 28 80 95
27 29 38 35 63 31 16 -2 34 -13 39 -23z"/>
<path d="M9615 5940 c3 -5 2 -10 -2 -10 -5 0 -18 -7 -29 -15 -17 -13 -15 -14
34 -15 l53 0 -18 25 c-17 23 -51 37 -38 15z"/>
<path d="M4835 3679 c-78 -19 -123 -94 -93 -155 16 -35 61 -62 136 -81 65 -17
82 -28 82 -54 0 -48 -85 -63 -158 -27 l-45 21 -18 -24 c-10 -13 -17 -28 -15
-34 7 -23 71 -48 135 -53 122 -8 201 50 187 136 -8 52 -41 80 -121 104 -82 24
-115 49 -99 76 14 22 95 28 137 11 27 -11 32 -10 48 10 26 31 24 36 -13 54
-45 21 -115 28 -163 16z"/>
<path d="M5565 3675 c-57 -20 -85 -56 -85 -109 0 -57 34 -91 109 -111 82 -23
106 -37 109 -67 2 -19 -3 -30 -19 -38 -27 -15 -97 -7 -140 16 -30 15 -33 15
-52 -4 -11 -11 -17 -27 -14 -36 16 -41 145 -68 223 -47 55 15 85 49 91 105 5
41 3 48 -28 79 -24 23 -56 40 -105 55 -76 23 -98 40 -88 65 12 32 93 39 144
13 27 -13 30 -12 45 10 21 32 19 41 -13 58 -43 22 -131 28 -177 11z"/>
<path d="M5220 3480 l0 -200 40 0 40 0 0 200 0 200 -40 0 -40 0 0 -200z"/>
<path d="M5910 3645 l0 -34 68 -3 67 -3 3 -162 2 -163 40 0 40 0 0 165 0 165
65 0 65 0 0 35 0 35 -175 0 -175 0 0 -35z"/>
<path d="M6420 3480 l0 -200 148 0 148 0 -4 35 -4 35 -104 0 -104 0 0 45 0 45
90 0 90 0 0 40 0 40 -90 0 -90 0 0 45 0 45 105 0 105 0 0 35 0 35 -145 0 -145
0 0 -200z"/>
<path d="M6880 3481 l0 -201 40 0 39 0 3 128 3 127 51 -95 c42 -78 55 -96 77
-98 23 -3 30 6 74 87 26 50 51 91 56 91 4 0 7 -54 7 -119 l0 -119 36 -4 c21
-2 38 0 40 7 3 6 3 96 2 200 l-3 190 -45 3 -45 2 -58 -110 c-32 -60 -61 -110
-65 -110 -4 0 -32 49 -63 108 l-55 107 -47 3 -47 3 0 -200z"/>
<path d="M7613 3668 c-8 -11 -121 -278 -152 -360 -10 -28 -10 -28 32 -28 40 0
43 3 59 40 l17 40 89 0 90 0 16 -40 c15 -38 18 -40 60 -40 l45 0 -39 93 c-21
50 -59 139 -83 197 l-44 105 -40 3 c-24 2 -44 -2 -50 -10z m81 -167 c14 -36
26 -66 26 -68 0 -2 -27 -3 -61 -3 -58 0 -60 1 -53 23 22 72 47 128 54 120 5
-4 20 -37 34 -72z"/>
<path d="M8258 3674 c-5 -4 -8 -94 -8 -201 l0 -193 110 0 c151 0 200 21 242
104 28 56 22 159 -12 209 -43 62 -89 80 -215 85 -60 2 -113 1 -117 -4z m220
-84 c56 -34 76 -108 48 -175 -19 -44 -61 -65 -131 -65 l-55 0 0 130 0 130 53
0 c35 0 63 -7 85 -20z"/>
<path d="M8782 3480 l3 -200 110 -2 c194 -2 185 -3 185 37 l0 35 -110 0 -110
0 0 45 0 45 96 0 95 0 -3 38 -3 37 -93 3 -93 3 3 42 3 42 108 3 107 3 0 34 0
35 -150 0 -150 0 2 -200z"/>
<path d="M4055 3513 c-349 -8 -1190 -34 -1192 -37 -2 -2 131 -6 294 -10 164
-3 406 -11 538 -16 132 -5 351 -12 488 -16 l247 -6 0 46 0 46 -132 -2 c-73 -1
-182 -3 -243 -5z"/>
<path d="M9320 3474 l0 -47 223 7 c122 3 373 11 557 17 184 6 439 14 565 18
l230 7 -155 7 c-170 8 -1244 37 -1352 37 l-68 0 0 -46z"/>
<path d="M4275 3006 c-95 -30 -155 -77 -192 -150 -36 -68 -38 -180 -5 -242 51
-98 119 -138 334 -198 101 -29 143 -86 103 -143 -47 -68 -235 -48 -354 36 -27
19 -29 20 -43 3 -40 -46 -99 -145 -94 -157 8 -22 104 -73 181 -97 101 -32 286
-32 366 0 82 33 130 71 164 133 27 48 30 63 30 140 0 78 -3 90 -30 135 -49 79
-110 113 -299 169 -134 40 -175 90 -123 151 46 54 190 42 288 -23 22 -14 41
-24 43 -22 2 2 26 41 55 86 l51 82 -33 24 c-47 36 -85 53 -154 71 -73 19 -231
20 -288 2z"/>
<path d="M6769 2997 c-177 -60 -281 -205 -305 -422 -14 -138 40 -316 126 -409
90 -97 263 -152 410 -129 107 17 250 91 250 130 0 8 -26 48 -58 88 l-58 73
-35 -29 c-101 -84 -250 -76 -327 17 -89 107 -83 341 10 432 85 81 206 82 319
1 29 -21 31 -21 44 -3 50 65 96 146 91 159 -9 24 -95 74 -165 95 -89 28 -215
27 -302 -3z"/>
<path d="M11714 3009 c-112 -26 -237 -142 -283 -262 -47 -128 -48 -317 0 -441
74 -197 260 -301 478 -267 235 37 367 216 365 496 -2 241 -112 412 -303 469
-60 17 -189 20 -257 5z m206 -221 c88 -45 127 -145 117 -303 -7 -122 -49 -196
-130 -230 -178 -74 -315 113 -267 366 29 152 158 228 280 167z"/>
<path d="M1665 2998 c-3 -7 -38 -110 -79 -228 -41 -118 -113 -327 -160 -463
-47 -137 -86 -253 -86 -258 0 -5 54 -9 119 -9 l119 0 29 88 28 87 144 3 c92 2
148 -1 155 -8 6 -6 22 -45 36 -88 l25 -77 123 -3 c67 -1 122 0 122 4 0 6 -46
138 -261 758 -38 109 -69 200 -69 202 0 2 -54 4 -120 4 -87 0 -122 -3 -125
-12z m170 -429 c25 -79 45 -147 45 -151 0 -5 -40 -8 -90 -8 -65 0 -90 3 -90
12 0 18 83 298 87 294 2 -2 24 -68 48 -147z"/>
<path d="M2295 2999 c-3 -8 -4 -225 -3 -484 l3 -470 210 -3 c294 -4 394 15
474 91 51 48 71 100 71 185 0 107 -37 179 -114 219 l-29 15 32 25 c51 40 75
97 76 178 0 57 -5 79 -25 115 -27 48 -97 102 -158 121 -22 7 -138 14 -284 16
-202 4 -249 3 -253 -8z m454 -207 c38 -28 42 -102 7 -137 -23 -23 -32 -25
-126 -25 l-100 0 0 88 c0 49 3 92 7 95 3 4 47 5 96 2 69 -3 97 -8 116 -23z m6
-366 c48 -21 71 -67 56 -118 -17 -56 -48 -68 -176 -68 l-105 0 0 100 0 100 95
0 c60 0 108 -5 130 -14z"/>
<path d="M3345 2788 c-43 -123 -118 -335 -166 -472 -49 -136 -89 -255 -89
-262 0 -11 24 -14 118 -14 l117 0 30 88 30 87 154 0 154 0 26 -85 27 -85 122
-3 c101 -2 122 0 122 12 0 13 -97 300 -262 773 l-63 183 -121 0 -121 0 -78
-222z m280 -346 l7 -32 -91 0 c-61 0 -91 4 -91 11 0 10 68 236 86 289 5 13 70
-185 89 -268z"/>
<path d="M4820 2905 l0 -105 130 0 130 0 2 -377 3 -378 115 0 115 0 3 378 2
377 135 0 136 0 -3 103 -3 102 -382 3 -383 2 0 -105z"/>
<path d="M5685 2998 c-3 -7 -4 -224 -3 -483 l3 -470 345 0 345 0 0 100 0 100
-227 3 -228 2 0 85 0 85 38 0 c20 1 107 2 192 3 l155 2 3 103 3 102 -196 0
-195 0 0 85 0 85 225 0 225 0 0 105 0 105 -340 0 c-263 0 -342 -3 -345 -12z"/>
<path d="M7362 2528 l3 -483 115 0 115 0 3 420 c2 231 0 448 -3 483 l-7 62
-114 0 -114 0 2 -482z"/>
<path d="M7740 2525 l0 -485 115 0 115 0 2 268 3 267 97 -197 98 -198 71 0 70
0 99 203 99 202 0 -272 1 -273 115 0 115 0 0 485 0 485 -118 0 -119 0 -130
-262 -131 -262 -131 262 -131 262 -120 0 -120 0 0 -485z"/>
<path d="M8878 2868 c-2 -79 -4 -296 -4 -483 l1 -340 345 0 345 0 3 103 3 102
-231 0 -231 0 3 86 3 87 195 1 195 1 0 100 0 100 -197 3 -198 2 0 85 0 85 225
0 225 0 0 105 0 105 -339 0 -338 0 -5 -142z"/>
<path d="M9695 2998 c-3 -7 -4 -224 -3 -483 l3 -470 115 0 115 0 5 267 5 267
59 -92 c33 -51 101 -155 151 -232 50 -77 101 -157 114 -177 l23 -38 109 0 109
0 0 485 0 485 -115 0 -115 0 -2 -277 -3 -276 -91 144 c-50 79 -128 204 -174
277 l-84 132 -108 0 c-78 0 -110 -4 -113 -12z"/>
<path d="M10590 2905 l0 -105 130 0 130 0 1 -182 c0 -101 1 -271 2 -378 l2
-195 115 0 115 0 3 378 2 377 135 0 136 0 -3 103 -3 102 -382 3 -383 2 0 -105z"/>
<path d="M6475 1785 c-59 -22 -112 -70 -143 -129 -24 -45 -27 -62 -27 -146 0
-101 13 -140 68 -206 59 -69 206 -104 313 -74 47 14 124 63 124 80 0 6 -15 27
-33 46 l-33 37 -44 -29 c-59 -39 -148 -41 -199 -5 -96 68 -91 242 8 308 57 38
154 28 212 -23 14 -13 20 -9 53 31 21 25 34 50 31 55 -4 6 -30 22 -58 37 -43
22 -68 27 -142 30 -62 2 -103 -2 -130 -12z"/>
<path d="M10389 1791 c-118 -36 -189 -141 -189 -280 0 -93 23 -155 80 -212 62
-62 125 -83 230 -77 62 4 88 10 131 35 59 32 111 98 129 161 15 56 12 152 -7
208 -21 63 -95 136 -159 158 -50 17 -169 20 -215 7z m206 -141 c44 -43 58 -87
53 -161 -15 -205 -290 -215 -315 -11 -8 71 3 117 39 158 41 47 61 54 131 51
49 -3 62 -8 92 -37z"/>
<path d="M11014 1782 c-77 -37 -117 -118 -95 -194 20 -64 59 -93 171 -128 103
-32 130 -48 130 -80 0 -57 -123 -72 -213 -26 l-52 28 -33 -38 c-18 -21 -31
-42 -29 -48 2 -5 26 -22 54 -38 43 -24 67 -30 140 -35 54 -3 105 -1 131 6 105
29 159 136 115 228 -22 47 -72 78 -168 103 -97 26 -125 43 -125 74 0 69 123
79 231 19 7 -4 59 72 59 87 0 5 -19 20 -42 32 -61 31 -215 37 -274 10z"/>
<path d="M2392 1509 l3 -281 150 1 c182 2 228 14 296 81 75 75 98 182 63 301
-12 40 -28 66 -64 101 -68 66 -116 78 -302 78 l-148 0 2 -281z m318 149 c49
-34 70 -67 76 -124 16 -132 -66 -207 -213 -196 l-53 4 0 169 0 169 79 0 c64 0
84 -4 111 -22z"/>
<path d="M3072 1508 l3 -283 208 -3 207 -2 0 55 c0 53 -1 55 -27 55 -16 1 -80
2 -143 3 l-115 2 0 60 0 60 123 3 122 3 0 54 0 55 -125 0 -126 0 3 57 3 58
140 0 140 1 1 52 1 52 -208 0 -209 0 2 -282z"/>
<path d="M3980 1515 c0 -151 1 -278 3 -282 1 -5 28 -8 60 -9 l57 0 0 163 c0
94 4 163 9 163 5 0 38 -54 73 -120 62 -118 87 -144 117 -126 6 4 41 64 78 134
l68 127 3 -173 2 -173 63 3 62 3 3 283 2 283 -72 -3 -72 -3 -75 -142 c-42 -78
-78 -144 -81 -147 -3 -2 -41 62 -85 144 l-80 149 -67 1 -68 0 0 -275z"/>
<path d="M4752 1508 l3 -283 210 0 210 0 0 53 0 54 -145 1 -145 2 0 60 0 60
123 3 122 3 0 56 0 56 -107 -5 c-60 -4 -114 -4 -120 -1 -9 3 -13 26 -13 65 l0
61 138 -4 137 -4 3 53 3 52 -211 0 -210 0 2 -282z"/>
<path d="M5332 1508 l3 -283 147 1 c168 2 222 15 284 68 109 93 125 289 33
400 -19 22 -58 50 -93 67 -59 28 -66 29 -219 29 l-157 0 2 -282z m348 126 c69
-74 67 -180 -5 -251 l-42 -43 -87 0 -86 0 0 171 0 171 91 -4 90 -3 39 -41z"/>
<path d="M6010 1510 l0 -280 49 0 c27 0 56 -3 65 -6 14 -6 16 23 16 280 l0
286 -65 0 -65 0 0 -280z"/>
<path d="M7141 1768 c-5 -13 -54 -137 -110 -276 -56 -140 -101 -258 -101 -264
0 -11 111 -4 130 7 5 3 16 28 25 55 l17 51 116 -3 115 -3 16 -47 c9 -26 20
-50 24 -55 12 -11 127 -12 127 -1 0 11 -69 196 -150 401 l-62 157 -69 0 c-63
0 -70 -2 -78 -22z m112 -211 c16 -45 31 -90 34 -99 5 -16 -3 -18 -64 -18 -38
0 -72 2 -75 6 -3 3 3 28 13 57 11 29 27 71 35 95 9 23 19 42 22 42 4 0 20 -37
35 -83z"/>
<path d="M7640 1510 c0 -316 -10 -281 83 -282 l42 -1 0 161 c0 89 3 162 7 162
4 0 28 -39 54 -87 85 -156 89 -162 121 -154 22 6 38 28 86 117 32 60 63 113
68 119 5 5 9 -53 9 -152 l0 -160 57 -6 c31 -3 60 -4 65 -1 4 3 8 131 8 285 l0
280 -71 -3 -72 -3 -73 -140 c-40 -77 -77 -141 -82 -143 -5 -1 -44 63 -86 143
l-77 145 -70 0 -69 0 0 -280z"/>
<path d="M8420 1510 l0 -280 23 -5 c12 -2 105 -3 207 -2 l185 2 3 53 3 52
-145 0 -146 0 0 65 0 65 125 0 125 0 0 55 0 55 -125 0 -125 0 0 58 0 57 142 0
143 0 3 53 3 52 -210 0 -211 0 0 -280z"/>
<path d="M9000 1511 l0 -279 61 -4 c33 -1 63 -1 65 1 2 2 4 78 4 168 0 89 3
163 8 163 4 -1 41 -51 82 -112 41 -61 94 -137 118 -170 l43 -59 57 3 57 3 3
283 2 282 -65 0 -65 0 0 -172 c0 -118 -3 -169 -10 -162 -6 6 -59 82 -119 170
l-108 159 -67 3 -66 3 0 -280z"/>
<path d="M9630 1735 l0 -55 90 0 91 0 -1 -227 c-2 -256 -7 -241 76 -228 l44 6
2 226 3 226 88 -2 87 -2 0 55 0 56 -240 0 -240 0 0 -55z"/>
<path d="M4065 886 c-67 -21 -100 -43 -149 -97 -32 -36 -52 -69 -63 -109 l-17
-57 -276 -6 c-151 -4 -329 -7 -395 -7 -66 0 -127 -5 -135 -10 -10 -7 24 -10
105 -10 66 0 251 -3 410 -7 l291 -6 17 -59 c21 -71 84 -140 162 -178 l50 -25
2780 0 2780 0 51 27 c71 38 138 114 156 180 l15 53 399 10 c219 6 388 14 374
17 -14 4 -193 11 -399 15 l-374 8 -11 45 c-23 88 -87 163 -175 204 l-46 21
-2755 2 c-2203 1 -2763 -1 -2795 -11z m1972 -131 c-41 -37 -59 -34 -35 5 8 12
23 20 38 20 l25 -1 -28 -24z m1543 0 c-21 -23 -60 -35 -60 -18 0 17 36 43 58
43 l25 0 -23 -25z m-1194 -51 c38 -18 41 -26 20 -43 -11 -9 -20 -9 -35 -2 -72
39 -144 -48 -95 -117 17 -25 81 -31 102 -10 10 10 16 8 30 -6 16 -16 16 -18
-7 -37 -29 -24 -107 -26 -139 -3 -74 51 -68 179 10 217 42 21 71 21 114 1z
m2290 1 c25 -10 34 -20 32 -32 -4 -18 -10 -19 -78 -7 -41 7 -66 -14 -76 -63
-12 -61 73 -113 122 -72 11 9 17 9 29 -1 22 -18 19 -28 -15 -45 -62 -32 -146
-11 -175 45 -32 61 -14 128 44 167 40 27 68 29 117 8z m-3846 -15 c0 -18 -7
-20 -60 -20 -45 0 -60 -4 -60 -14 0 -8 -3 -21 -6 -30 -5 -13 3 -16 50 -16 49
0 56 -2 56 -20 0 -17 -7 -20 -49 -20 l-50 0 -3 -47 c-3 -44 -5 -48 -28 -48
l-25 0 -3 118 -3 117 91 0 c83 0 90 -1 90 -20z m261 -102 l47 -118 -29 0 c-22
0 -30 6 -35 25 -6 23 -11 25 -58 25 -47 0 -54 -3 -64 -25 -8 -17 -20 -25 -37
-25 -14 0 -25 2 -25 4 0 6 81 198 92 219 6 12 18 17 36 15 23 -3 31 -16 73
-120z m310 103 c31 -25 31 -82 1 -114 l-22 -23 25 -36 c31 -46 31 -48 0 -48
-18 0 -32 11 -51 40 -19 28 -34 40 -50 40 -21 0 -24 -5 -24 -40 0 -36 -2 -40
-25 -40 l-25 0 0 120 0 120 74 0 c57 0 79 -4 97 -19z m224 -42 c16 -33 33 -63
37 -65 4 -3 22 24 40 61 28 56 36 65 59 65 34 0 36 -9 31 -138 -4 -99 -5 -103
-25 -100 -20 3 -23 11 -27 72 l-5 68 -27 -56 c-16 -31 -34 -56 -43 -56 -9 0
-27 25 -43 56 l-27 56 -5 -68 c-4 -62 -7 -69 -27 -72 -23 -3 -23 -2 -23 117
l0 121 28 0 c25 0 32 -8 57 -61z m453 -41 c60 -150 58 -138 28 -138 -19 0 -29
7 -36 25 -8 22 -15 25 -60 25 -44 0 -52 -3 -62 -25 -7 -16 -19 -25 -35 -25
-12 0 -23 4 -23 8 0 7 41 112 87 220 3 6 17 12 32 12 25 0 30 -8 69 -102z
m502 -18 l0 -120 -25 0 -25 0 0 120 0 120 25 0 25 0 0 -120z m266 68 c9 -29
30 -82 46 -116 15 -35 28 -66 28 -68 0 -2 -11 -4 -25 -4 -17 0 -29 8 -37 25
-10 22 -17 25 -63 25 -46 0 -53 -3 -63 -25 -8 -17 -20 -25 -36 -25 l-24 0 39
98 c22 53 44 107 49 120 7 16 18 22 39 22 27 0 31 -5 47 -52z m472 32 c12 -12
23 -28 23 -38 4 -64 -21 -94 -88 -102 -47 -5 -48 -6 -51 -43 -3 -33 -6 -38
-25 -35 -21 3 -22 8 -25 121 l-3 117 74 0 c60 0 77 -4 95 -20z m182 -65 c0
-79 2 -86 25 -101 23 -15 27 -15 50 0 23 15 25 22 25 101 0 84 0 85 25 85 25
0 25 -1 25 -91 0 -87 -1 -92 -29 -120 -34 -33 -83 -39 -131 -14 -36 18 -50 63
-50 158 l0 67 30 0 30 0 0 -85z m440 65 c22 -22 26 -60 9 -77 -8 -8 -7 -17 5
-34 22 -32 20 -62 -5 -85 -16 -14 -40 -20 -100 -23 l-79 -3 0 121 0 121 75 0
c62 0 79 -4 95 -20z m190 -75 l0 -94 58 -3 c49 -3 57 -6 57 -23 0 -18 -8 -20
-82 -23 l-83 -3 0 121 0 120 25 0 c25 0 25 0 25 -95z m260 -26 c0 -119 0 -120
-22 -117 -22 3 -23 7 -26 121 l-3 117 26 0 25 0 0 -121z m600 10 c25 -61 47
-115 48 -120 2 -5 -8 -9 -22 -9 -18 0 -30 8 -38 25 -10 22 -17 25 -63 25 -46
0 -53 -3 -63 -25 -7 -15 -20 -25 -32 -25 -26 0 -26 1 9 90 58 148 59 150 89
150 25 0 30 -8 72 -111z m-4535 1 c4 -7 -73 -10 -224 -10 -147 0 -231 4 -231
10 0 6 81 10 224 10 139 0 227 -4 231 -10z m5235 0 c0 -6 -83 -10 -230 -10
-147 0 -230 4 -230 10 0 6 83 10 230 10 147 0 230 -4 230 -10z"/>
<path d="M5001 625 c-6 -16 -14 -36 -16 -42 -3 -9 7 -13 31 -13 34 0 34 0 21
28 -8 15 -17 34 -19 42 -4 10 -9 6 -17 -15z"/>
<path d="M5284 656 c-19 -48 20 -81 65 -56 25 13 28 55 5 64 -28 11 -64 6 -70
-8z"/>
<path d="M5997 623 c-2 -10 -8 -26 -12 -35 -6 -15 -2 -18 25 -18 27 0 31 3 25
18 -4 9 -10 25 -12 35 -3 9 -9 17 -13 17 -4 0 -10 -8 -13 -17z"/>
<path d="M6782 615 c-18 -38 -15 -45 18 -45 28 0 29 1 18 28 -18 42 -24 45
-36 17z"/>
<path d="M7210 630 c0 -37 2 -40 28 -40 34 0 52 16 52 46 0 23 -17 34 -56 34
-21 0 -24 -4 -24 -40z"/>
<path d="M7827 663 c-4 -3 -7 -15 -7 -25 0 -14 8 -18 39 -18 44 0 59 13 41 35
-13 15 -61 20 -73 8z"/>
<path d="M7822 543 c3 -26 6 -28 42 -26 45 2 59 13 50 36 -4 12 -18 17 -51 17
-42 0 -44 -1 -41 -27z"/>
<path d="M8901 615 c-15 -42 -12 -48 22 -43 24 3 24 3 8 41 l-16 39 -14 -37z"/>
</g>
</svg>
